<svg width="35" height="35" viewBox="0 0 35 35" fill="none" xmlns="http://www.w3.org/2000/svg">
<g id="eos-icons:branch-outlined">
<path id="Vector" d="M26.25 2.91667C25.2192 2.91471 24.221 3.27763 23.4322 3.94114C22.6433 4.60466 22.1147 5.52594 21.9401 6.54182C21.7654 7.55771 21.9559 8.60263 22.4778 9.49151C22.9998 10.3804 23.8194 11.0559 24.7917 11.3983V16.0417H10.2083V11.3983C11.1814 11.0543 12.0014 10.3774 12.5236 9.48722C13.0458 8.59703 13.2365 7.5509 13.062 6.53372C12.8875 5.51654 12.359 4.5938 11.5699 3.9286C10.7809 3.26339 9.78205 2.89854 8.75001 2.89854C7.71797 2.89854 6.71915 3.26339 5.93009 3.9286C5.14103 4.5938 4.61254 5.51654 4.43802 6.53372C4.26349 7.5509 4.45418 8.59703 4.97638 9.48722C5.49858 10.3774 6.31866 11.0543 7.29168 11.3983V23.6017C6.31866 23.9457 5.49858 24.6226 4.97638 25.5128C4.45418 26.403 4.26349 27.4491 4.43802 28.4663C4.61254 29.4835 5.14103 30.4062 5.93009 31.0714C6.71915 31.7366 7.71797 32.1015 8.75001 32.1015C9.78205 32.1015 10.7809 31.7366 11.5699 31.0714C12.359 30.4062 12.8875 29.4835 13.062 28.4663C13.2365 27.4491 13.0458 26.403 12.5236 25.5128C12.0014 24.6226 11.1814 23.9457 10.2083 23.6017V18.9583H24.7917C25.5652 18.9583 26.3071 18.651 26.8541 18.1041C27.4011 17.5571 27.7083 16.8152 27.7083 16.0417V11.3983C28.6806 11.0559 29.5003 10.3804 30.0222 9.49151C30.5441 8.60263 30.7346 7.55771 30.5599 6.54182C30.3853 5.52594 29.8567 4.60466 29.0679 3.94114C28.279 3.27763 27.2808 2.91471 26.25 2.91667ZM8.75001 29.1667C8.46158 29.1667 8.17962 29.0811 7.9398 28.9209C7.69998 28.7606 7.51306 28.5329 7.40268 28.2664C7.29231 27.9999 7.26343 27.7067 7.3197 27.4238C7.37597 27.1409 7.51486 26.8811 7.71881 26.6771C7.92276 26.4732 8.18261 26.3343 8.4655 26.278C8.74839 26.2218 9.04161 26.2506 9.30809 26.361C9.57456 26.4714 9.80233 26.6583 9.96257 26.8981C10.1228 27.1379 10.2083 27.4199 10.2083 27.7083C10.2083 28.0951 10.0547 28.466 9.78121 28.7395C9.50772 29.013 9.13678 29.1667 8.75001 29.1667ZM8.75001 8.75C8.46158 8.75 8.17962 8.66447 7.9398 8.50423C7.69998 8.34398 7.51306 8.11622 7.40268 7.84975C7.29231 7.58327 7.26343 7.29005 7.3197 7.00716C7.37597 6.72427 7.51486 6.46442 7.71881 6.26047C7.92276 6.05652 8.18261 5.91763 8.4655 5.86136C8.74839 5.80508 9.04161 5.83396 9.30809 5.94434C9.57456 6.05472 9.80233 6.24164 9.96257 6.48146C10.1228 6.72128 10.2083 7.00324 10.2083 7.29167C10.2083 7.67844 10.0547 8.04937 9.78121 8.32286C9.50772 8.59635 9.13678 8.75 8.75001 8.75ZM26.25 8.75C25.9616 8.75 25.6796 8.66447 25.4398 8.50423C25.2 8.34398 25.0131 8.11622 24.9027 7.84975C24.7923 7.58327 24.7634 7.29005 24.8197 7.00716C24.876 6.72427 25.0149 6.46442 25.2188 6.26047C25.4228 6.05652 25.6826 5.91763 25.9655 5.86136C26.2484 5.80508 26.5416 5.83396 26.8081 5.94434C27.0746 6.05472 27.3023 6.24164 27.4626 6.48146C27.6228 6.72128 27.7083 7.00324 27.7083 7.29167C27.7083 7.67844 27.5547 8.04937 27.2812 8.32286C27.0077 8.59635 26.6368 8.75 26.25 8.75Z" fill="#545454"/>
</g>
</svg>
