<svg width="34" height="34" viewBox="0 0 34 34" fill="none" xmlns="http://www.w3.org/2000/svg">
<g id="ep:menu">
<path id="Vector" d="M5.3125 14.875C5.03071 14.875 4.76046 14.7631 4.5612 14.5638C4.36194 14.3646 4.25 14.0943 4.25 13.8125V5.31464C4.25 5.03284 4.36194 4.76259 4.5612 4.56334C4.76046 4.36408 5.03071 4.25214 5.3125 4.25214H13.8125C14.0943 4.25214 14.3645 4.36408 14.5638 4.56334C14.7631 4.76259 14.875 5.03284 14.875 5.31464V13.8125C14.875 14.0943 14.7631 14.3646 14.5638 14.5638C14.3645 14.7631 14.0943 14.875 13.8125 14.875H5.3125ZM20.1875 14.875C19.9057 14.875 19.6355 14.7631 19.4362 14.5638C19.2369 14.3646 19.125 14.0943 19.125 13.8125V5.31464C19.125 5.03284 19.2369 4.76259 19.4362 4.56334C19.6355 4.36408 19.9057 4.25214 20.1875 4.25214H28.6854C28.9672 4.25214 29.2374 4.36408 29.4367 4.56334C29.6359 4.76259 29.7479 5.03284 29.7479 5.31464V13.8125C29.7479 14.0943 29.6359 14.3646 29.4367 14.5638C29.2374 14.7631 28.9672 14.875 28.6854 14.875H20.1875ZM5.3125 29.75C5.03071 29.75 4.76046 29.6381 4.5612 29.4388C4.36194 29.2396 4.25 28.9693 4.25 28.6875V20.1875C4.25 19.9057 4.36194 19.6355 4.5612 19.4362C4.76046 19.237 5.03071 19.125 5.3125 19.125H13.8125C14.0943 19.125 14.3645 19.237 14.5638 19.4362C14.7631 19.6355 14.875 19.9057 14.875 20.1875V28.6875C14.875 28.9693 14.7631 29.2396 14.5638 29.4388C14.3645 29.6381 14.0943 29.75 13.8125 29.75H5.3125ZM20.1875 29.75C19.9057 29.75 19.6355 29.6381 19.4362 29.4388C19.2369 29.2396 19.125 28.9693 19.125 28.6875V20.1875C19.125 19.9057 19.2369 19.6355 19.4362 19.4362C19.6355 19.237 19.9057 19.125 20.1875 19.125H28.6854C28.9672 19.125 29.2374 19.237 29.4367 19.4362C29.6359 19.6355 29.7479 19.9057 29.7479 20.1875V28.6875C29.7479 28.9693 29.6359 29.2396 29.4367 29.4388C29.2374 29.6381 28.9672 29.75 28.6854 29.75H20.1875Z" fill="#545454"/>
</g>
</svg>
