<svg width="34" height="34" viewBox="0 0 34 34" fill="none" xmlns="http://www.w3.org/2000/svg">
<g id="material-symbols:patient-list">
<path id="Vector" d="M22.6667 19.8333C21.4861 19.8333 20.4826 19.4201 19.6562 18.5938C18.8299 17.7674 18.4167 16.7639 18.4167 15.5833C18.4167 14.4028 18.8299 13.3993 19.6562 12.5729C20.4826 11.7465 21.4861 11.3333 22.6667 11.3333C23.8472 11.3333 24.8507 11.7465 25.6771 12.5729C26.5035 13.3993 26.9167 14.4028 26.9167 15.5833C26.9167 16.7639 26.5035 17.7674 25.6771 18.5938C24.8507 19.4201 23.8472 19.8333 22.6667 19.8333ZM14.1667 28.3333V25.6417C14.1667 25.1458 14.2847 24.6736 14.5208 24.225C14.7569 23.7764 15.0875 23.4222 15.5125 23.1625C16.575 22.525 17.7027 22.0471 18.8955 21.7288C20.0883 21.4106 21.3454 21.2509 22.6667 21.25C23.9889 21.25 25.2464 21.4096 26.4392 21.7288C27.6321 22.0481 28.7593 22.5259 29.8208 23.1625C30.2458 23.4222 30.5764 23.7764 30.8125 24.225C31.0486 24.6736 31.1667 25.1458 31.1667 25.6417V28.3333H14.1667ZM4.25 19.8333V17H15.5833V19.8333H4.25ZM4.25 8.5V5.66667H21.25V8.5H4.25ZM15.725 14.1667H4.25V11.3333H17C16.6694 11.7347 16.4036 12.1715 16.2024 12.6438C16.0013 13.116 15.8421 13.6236 15.725 14.1667Z" fill="#545454"/>
</g>
</svg>
