<svg width="34" height="34" viewBox="0 0 34 34" fill="none" xmlns="http://www.w3.org/2000/svg">
<g id="mdi:webpack">
<path id="Vector" d="M28.9708 24.6358L17.51 31.1242V26.0667L24.65 22.1425L28.9708 24.6358ZM29.75 23.9275V10.3558L25.5567 12.75V21.505L29.75 23.9275ZM5.02917 24.6358L16.49 31.11V26.0667L9.35 22.1425L5.02917 24.6358ZM4.25 23.9275V10.3558L8.44333 12.75V21.505L4.25 23.9275ZM4.74583 9.47749L16.49 2.83333V7.72083L8.9675 11.8575L8.89667 11.8858L4.74583 9.47749ZM29.2542 9.47749L17.51 2.83333V7.72083L25.0325 11.8717L25.0892 11.9L29.2542 9.47749ZM16.49 24.9192L9.44917 21.0375V13.3733L16.49 17.4392V24.9192ZM17.51 24.9192L24.5508 21.0517V13.3733L17.51 17.4392V24.9192ZM9.91667 12.4808L17 8.58499L24.0833 12.4808L17 16.5608L9.91667 12.4808Z" fill="#545454"/>
</g>
</svg>
