<svg width="34" height="34" viewBox="0 0 34 34" fill="none" xmlns="http://www.w3.org/2000/svg">
<g id="solar:money-bag-bold">
<path id="Vector" fill-rule="evenodd" clip-rule="evenodd" d="M17.0736 1.77084H16.9263C15.6527 1.77084 14.5916 1.77084 13.7501 1.88417C12.8605 2.00317 12.0572 2.26667 11.4126 2.91125C10.7666 3.55725 10.5031 4.3605 10.3841 5.24875C10.3034 5.85367 10.2793 7.29725 10.2736 8.53542C7.40915 8.63034 5.6879 8.96467 4.49365 10.1603C2.83331 11.8193 2.83331 14.4911 2.83331 19.8333C2.83331 25.1756 2.83331 27.8474 4.49365 29.5063C6.15256 31.1667 8.8244 31.1667 14.1666 31.1667H19.8333C25.1756 31.1667 27.8474 31.1667 29.5063 29.5063C31.1666 27.8474 31.1666 25.1756 31.1666 19.8333C31.1666 14.4911 31.1666 11.8193 29.5063 10.1603C28.3121 8.96467 26.5908 8.63034 23.7263 8.53684C23.7206 7.29725 23.698 5.85367 23.6158 5.25017C23.4968 4.3605 23.2333 3.55725 22.5873 2.91267C21.9427 2.26667 21.1395 2.00317 20.2498 1.88417C19.4083 1.77084 18.3458 1.77084 17.0736 1.77084ZM21.6013 8.50284C21.5942 7.30292 21.5744 6.01234 21.5106 5.53209C21.4214 4.879 21.2698 4.5985 21.0856 4.41434C20.9015 4.23017 20.621 4.07859 19.9665 3.98934C19.2836 3.89867 18.3656 3.89584 17 3.89584C15.6343 3.89584 14.7163 3.89867 14.0321 3.99075C13.379 4.07859 13.0985 4.23017 12.9143 4.41575C12.7301 4.59992 12.5786 4.879 12.4893 5.53209C12.4256 6.01375 12.4043 7.30292 12.3986 8.50284C12.9526 8.5 13.5433 8.5 14.1666 8.5H19.8333C20.4581 8.5 21.0474 8.5 21.6013 8.50284ZM17 13.1042C17.2818 13.1042 17.552 13.2161 17.7513 13.4154C17.9505 13.6146 18.0625 13.8849 18.0625 14.1667V14.1808C19.6052 14.569 20.8958 15.7859 20.8958 17.4718C20.8958 17.7535 20.7839 18.0238 20.5846 18.2231C20.3854 18.4223 20.1151 18.5343 19.8333 18.5343C19.5515 18.5343 19.2813 18.4223 19.082 18.2231C18.8828 18.0238 18.7708 17.7535 18.7708 17.4718C18.7708 16.9278 18.1673 16.1741 17 16.1741C15.8326 16.1741 15.2291 16.9278 15.2291 17.4718C15.2291 18.0158 15.8326 18.7708 17 18.7708C18.9621 18.7708 20.8958 20.1308 20.8958 22.1949C20.8958 23.8808 19.6052 25.0963 18.0625 25.4858V25.5C18.0625 25.7818 17.9505 26.052 17.7513 26.2513C17.552 26.4506 17.2818 26.5625 17 26.5625C16.7182 26.5625 16.4479 26.4506 16.2487 26.2513C16.0494 26.052 15.9375 25.7818 15.9375 25.5V25.4858C14.3947 25.0977 13.1041 23.8808 13.1041 22.1949C13.1041 21.9131 13.2161 21.6429 13.4153 21.4436C13.6146 21.2444 13.8849 21.1324 14.1666 21.1324C14.4484 21.1324 14.7187 21.2444 14.9179 21.4436C15.1172 21.6429 15.2291 21.9131 15.2291 22.1949C15.2291 22.7389 15.8326 23.4926 17 23.4926C18.1673 23.4926 18.7708 22.7389 18.7708 22.1949C18.7708 21.6509 18.1673 20.8958 17 20.8958C15.0379 20.8958 13.1041 19.5358 13.1041 17.4718C13.1041 15.7859 14.3947 14.569 15.9375 14.1808V14.1667C15.9375 13.8849 16.0494 13.6146 16.2487 13.4154C16.4479 13.2161 16.7182 13.1042 17 13.1042Z" fill="#545454"/>
</g>
</svg>
