<svg width="34" height="34" viewBox="0 0 34 34" fill="none" xmlns="http://www.w3.org/2000/svg">
<g id="solar:settings-bold">
<path id="Vector" fill-rule="evenodd" clip-rule="evenodd" d="M20.2286 3.04866C19.7044 2.83333 19.0386 2.83333 17.7084 2.83333C16.3781 2.83333 15.7123 2.83333 15.1881 3.04866C14.4903 3.33513 13.9349 3.887 13.6439 4.58291C13.5108 4.89883 13.4598 5.26858 13.4385 5.80549C13.4291 6.19452 13.3206 6.5747 13.1232 6.9101C12.9259 7.24549 12.6463 7.52502 12.3109 7.72225C11.9691 7.91222 11.5849 8.01287 11.1938 8.01485C10.8028 8.01683 10.4176 7.92008 10.0739 7.73358C9.5951 7.48141 9.24802 7.34258 8.90519 7.29725C8.15514 7.19876 7.39654 7.40038 6.79435 7.85824C6.34385 8.20108 6.01094 8.77341 5.34652 9.91666C4.68069 11.0599 4.34919 11.6308 4.2741 12.1904C4.17494 12.9356 4.37894 13.6892 4.84077 14.2857C5.05044 14.5577 5.34652 14.7857 5.8041 15.0719C6.47985 15.4927 6.91335 16.2095 6.91335 17C6.91335 17.7905 6.47985 18.5073 5.80552 18.9267C5.34652 19.2142 5.05044 19.4423 4.83935 19.7143C4.61139 20.0089 4.44406 20.3458 4.34704 20.7054C4.25002 21.065 4.22523 21.4403 4.2741 21.8096C4.34919 22.3677 4.68069 22.9401 5.34652 24.0833C6.01235 25.2266 6.34385 25.7975 6.79435 26.1417C7.39502 26.5993 8.15435 26.8005 8.90519 26.7027C9.24802 26.6574 9.5951 26.5186 10.0739 26.2664C10.4178 26.0797 10.8033 25.9828 11.1946 25.9848C11.5859 25.9867 11.9703 26.0875 12.3123 26.2777C13.0008 26.6744 13.4088 27.404 13.4385 28.1945C13.4598 28.7328 13.5108 29.1012 13.6439 29.4171C13.9329 30.1112 14.4883 30.6637 15.1881 30.9513C15.7123 31.1667 16.3781 31.1667 17.7084 31.1667C19.0386 31.1667 19.7044 31.1667 20.2286 30.9513C20.9264 30.6649 21.4818 30.113 21.7728 29.4171C21.9059 29.1012 21.9569 28.7328 21.9782 28.1945C22.0065 27.404 22.4159 26.673 23.1059 26.2777C23.4476 26.0878 23.8318 25.9871 24.2229 25.9851C24.6139 25.9832 24.9991 26.0799 25.3428 26.2664C25.8216 26.5186 26.1687 26.6574 26.5115 26.7027C27.2624 26.8019 28.0217 26.5993 28.6224 26.1417C29.0729 25.7989 29.4058 25.2266 30.0702 24.0833C30.736 22.9401 31.0675 22.3692 31.1426 21.8096C31.1913 21.4402 31.1663 21.0649 31.069 20.7052C30.9717 20.3456 30.8041 20.0088 30.5759 19.7143C30.3663 19.4423 30.0702 19.2142 29.6126 18.9281C28.9369 18.5073 28.5034 17.7905 28.5034 17C28.5034 16.2095 28.9369 15.4927 29.6112 15.0733C30.0702 14.7857 30.3663 14.5577 30.5774 14.2857C30.8053 13.9911 30.9726 13.6542 31.0697 13.2946C31.1667 12.935 31.1915 12.5597 31.1426 12.1904C31.0675 11.6322 30.736 11.0599 30.0702 9.91666C29.4044 8.77341 29.0729 8.20249 28.6224 7.85824C28.0202 7.40038 27.2616 7.19876 26.5115 7.29725C26.1687 7.34258 25.8216 7.48141 25.3428 7.73358C24.9989 7.92034 24.6134 8.01722 24.2221 8.01524C23.8308 8.01326 23.4464 7.91248 23.1044 7.72225C22.7692 7.52485 22.4899 7.24524 22.2929 6.90986C22.0958 6.57447 21.9875 6.19438 21.9782 5.80549C21.9569 5.26716 21.9059 4.89883 21.7728 4.58291C21.6288 4.23829 21.4183 3.92541 21.1533 3.66216C20.8884 3.39891 20.5741 3.19044 20.2286 3.04866ZM17.7084 21.25C20.0742 21.25 21.9909 19.3474 21.9909 17C21.9909 14.6526 20.0728 12.75 17.7084 12.75C15.3425 12.75 13.4258 14.6526 13.4258 17C13.4258 19.3474 15.3439 21.25 17.7084 21.25Z" fill="#545454"/>
</g>
</svg>
