<svg width="30" height="30" viewBox="0 0 30 30" fill="none" xmlns="http://www.w3.org/2000/svg">
<g id="subway:admin" clip-path="url(#clip0_8_107)">
<path id="Vector" d="M26.25 21.252L19.377 20.0039C18.75 18.75 18.75 18.2051 18.75 17.502C19.377 16.875 20.625 16.2539 20.625 15.627C21.252 13.752 21.252 12.5039 21.252 12.5039C21.5742 12.0352 22.5 11.2559 22.5 10.002C22.5 8.74805 21.252 7.5 21.252 6.87891C21.252 1.875 18.7031 0 15 0C11.4551 0 8.74805 1.875 8.74805 6.87305C8.74805 7.5 7.5 8.74805 7.5 9.99609C7.5 11.2441 8.39062 12.0703 8.74805 12.498C8.74805 12.498 8.74805 13.7461 9.375 15.6211C9.375 16.248 10.623 16.8691 11.25 17.4961C11.25 18.123 11.25 18.7441 10.623 19.998L3.75 21.252C1.24805 21.873 0 26.25 0 30H30C30 26.25 28.752 21.873 26.25 21.252Z" fill="#545454"/>
</g>
<defs>
<clipPath id="clip0_8_107">
<rect width="30" height="30" fill="white"/>
</clipPath>
</defs>
</svg>
